<?xml version="1.0" encoding="UTF-8"?>
<svg id="Layer_1" data-name="Layer 1" xmlns="http://www.w3.org/2000/svg" viewBox="0 0 2234.72 3982.96">
  <path id="ulleungdo" d="M2057.28,2218.95c5.93-14.17,26.82-14.6,40.54-14.16,9.17.3-2.66,10.62,0,26.99.22,1.35-8,12.51-20.36,11.95-8.36-.38-8.37-9.52-9.74-11.06-5.62-6.37-13.45-6.54-10.45-13.72Z" fill="#2b368d" stroke="#231815" stroke-miterlimit="10" stroke-width=".75"/>
  <g id="dokdo">
    <path id="dokdo-2" data-name="dokdo" d="M2214.93,2233.55c-.61-2.89,2.88-6.02,5.31-5.39,1.5.39,2.4,2.16,2.57,3.57.24,1.9-.68,4.53-2.99,5.06-2.28.53-4.49-1.32-4.9-3.24Z" fill="#291d3c" stroke="#231815" stroke-miterlimit="10" stroke-width=".75"/>
    <path id="dokdo-3" data-name="dokdo" d="M2226.96,2235.12c1.12-1.83,5.79-1.98,7.05.33,1.18,2.17-1.01,5.83-3.15,5.97-2.48.17-5.11-4.32-3.9-6.31Z" fill="#291d3c" stroke="#231815" stroke-miterlimit="10" stroke-width=".75"/>
  </g>
  <path id="seoul" d="M777.24,2228.07c-4.37-5.19-15.05.96-18.59-3.84-4.03-5.48,3.84-21.63,12.61-22.57,6.08-.65,8.23,6.48,16.59,6.64,8.16.15,14.23-6.48,14.6-6.9,7.93-8.92,3.69-21.2,8.63-22.97,4.34-1.55,8.37,7.69,13.94,6.64,7.01-1.33,4.73-16.76,15.27-23.9,6.86-4.65,17.44-4.61,21.9,0,3.17,3.27.92,6.42,3.32,17.26,2.37,10.67,5.22,10.63,5.97,17.92,1.25,12.11-5.81,19.96-3.32,21.9,3.34,2.61,15.37-12.07,21.9-8.63,3.26,1.72,4.47,7.59,3.32,11.95-2.17,8.23-12.22,9.02-12.61,15.27-.29,4.65,5.18,5.64,5.97,10.62,1.61,10.05-17.4,26.52-31.2,23.23-8.91-2.12-9.61-11.05-18.59-11.95-9.05-.91-11.44,7.86-19.91,7.3-12.07-.8-15.04-19.11-26.55-19.25-8.17-.1-13.43,9.05-15.93,7.3-3.5-2.45,8.25-19.38,2.65-26.03Z" fill="#de3926" stroke="#231815" stroke-miterlimit="10" stroke-width=".75"/>
  <path id="gyeonggi" d="M694.45,2199.46s16.99-11.23,24.15-11.92c3.11-.3,9.71-.99,14.87,2.4,5.6,3.68,5.43,7.93,9.29,12.61,4.33,5.26,11.45,7.53,17.4,8.7,2.56-4.84,6.72-9.12,11.11-9.59,6.08-.65,8.23,6.48,16.59,6.64,8.16.15,14.23-6.48,14.6-6.9,7.93-8.92,3.69-21.2,8.63-22.97,4.34-1.55,8.37,7.69,13.94,6.64,7.01-1.33,4.73-16.76,15.27-23.9,6.86-4.65,17.44-4.61,21.9,0,3.17,3.27.92,6.42,3.32,17.26,2.37,10.67,5.22,10.63,5.97,17.92,1.25,12.11-5.81,19.96-3.32,21.9,3.34,2.61,15.37-12.07,21.9-8.63,3.26,1.72,4.47,7.59,3.32,11.95-2.17,8.23-12.22,9.02-12.61,15.27-.29,4.65,5.18,5.64,5.97,10.62,1.61,10.05-17.4,26.52-31.2,23.23-8.91-2.12-9.61-11.05-18.59-11.95-9.05-.91-11.44,7.86-19.91,7.3-12.07-.8-15.04-19.11-26.55-19.25-8.17-.1-13.43,9.05-15.93,7.3-3.5-2.45,8.25-19.38,2.65-26.03-4.37-5.19-14.54,1.38-18.08-3.43.14.19-.16-.15,0,0-5.01,5.92-8.62,14.23-6.67,20.51,1.91,6.15,6.85,5.57,9.07,10.84,4.88,11.58-12.45,29.97-22.35,38.17-10.87,9.01-22.61,13.87-32.89,16.54-.62,12.5.16,22.76,1.52,33.81,4.84,39.37,40.39,68.14,57.64,93.81,4.76,7.08,9.07,12.72-8.85,15.05-1.23.16-2.47.21-3.71.16,13.23,16.5,29.15,30.19,47.44,29.69,26.26-.71,38.59-30.09,69.92-25.66,24.76,3.5,39.83,19.47,39.83,19.47,8.5,9.01,9.53,16.23,15.93,17.7,11.84,2.72,24.98-18.15,35.4-31.86,42.8-56.31,76.89-40.77,102.18-87.62,5.51-10.21,21.49-39.81,18.18-76.11-1.87-20.47-9.07-34.22-.89-49.29,9.91-18.26,32.48-20.2,31.4-26.82-1.06-6.51-22.8-4.18-56.18-15.05-17.83-5.8-30.02-9.94-39.83-21.35-13.57-15.8-14.1-35.67-14.16-40.6-.53-41.25,36.58-60.96,27.44-79.65-6.09-12.45-23.02-4.7-37.17-21.24-15.89-18.57-7.55-43.55-19.47-47.79-8.76-3.12-15.06,9.73-29.21,7.08-8.29-1.56-16.55-7.93-19.47-15.93-3.72-10.22,2.37-20.04,0-21.24-3.3-1.68-13.02,18.43-20.36,16.82-8.86-1.95-4.42-33.47-18.59-38.94-4.18-1.62-5.8.65-10.62,0-8.56-1.16-13.47-9.68-17.73-19.37-15.17,13.16-26.31,29.74-34.85,42.62-22.41,33.82-17.2,47.66-38.06,64.61-26.23,21.31-49.01,11.24-59.3,30.09-12.15,22.27,12.75,48.94,0,62.84-10.99,11.97-33.72-3.22-44.25,7.97-3.03,3.22-4.88,11.43-4.88,11.43l18.8,54.15Z" fill="#ed7423" stroke="#231815" stroke-miterlimit="10" stroke-width=".75"/>
  <path id="daejeon" d="M1014.54,2685.88c-3.44-7.72-13.16-15.44-23.01-16.82-10-1.4-16.27,4.28-22.13,0-4.53-3.31-5.4-10.08-6.15-15.93-.19-1.46-.25-2.69-.28-3.82h0c-4.27-1.42-8.1-2.55-10.68-.29-3.4,2.99-.42,8.18-3.1,16.37-3.03,9.28-10.72,14.47-12.89,15.93-2.88,1.94-6.48,3.28-9.66,4.07,3.02,9.71-19.91,27.85-13.63,43.05,3.28,7.92,12.02,9.01,13.03,18.59.7,6.6-2.92,11.07,0,14.6,2.57,3.12,6.57,1.08,10.53,4.65,4.31,3.88,3.64,9.94,4.65,9.96,2.44.05,1.51-35.52,8.63-37.17,5.05-1.17,8.56,30.43,20.58,31.86,5.35.64,8.57-5.05,19.25-15.27,1.12-1.07,2.17-2.06,3.24-3.08-.17-.12-.37-.16-.52-.32-7.54-8.29,32.36-43.42,22.13-66.38Z" fill="#95c53d" stroke="#231815" stroke-miterlimit="10" stroke-width=".75"/>
  <path id="gangwon_south" d="M1458.45,2125.91c-87.72-126.1-90.71-124.34-109.74-161.07-48.74-94.05-80.48-179.45-80.48-179.45,0,0-1.04,31.01-19.52,67.93-3.3,6.6-24.41,47.27-65.49,60.18-25.88,8.13-34.77-2.58-80.54-5.31-52.05-3.1-51.73,10.1-105.32,9.73-69.12-.47-83.43-22.52-117.71-7.08-8.5,3.83-15.95,9.07-22.68,14.91,4.26,9.69,9.17,18.21,17.73,19.37,4.82.65,6.44-1.62,10.62,0,14.17,5.47,9.73,36.99,18.59,38.94,7.33,1.62,17.05-18.49,20.36-16.82,2.37,1.2-3.72,11.02,0,21.24,2.92,8,11.18,14.38,19.47,15.93,14.15,2.65,20.45-10.2,29.21-7.08,11.92,4.24,3.58,29.22,19.47,47.79,14.15,16.54,31.08,8.79,37.17,21.24,9.14,18.7-27.96,38.41-27.44,79.65.06,4.93.59,24.8,14.16,40.6,9.81,11.41,22,15.55,39.83,21.35,33.38,10.87,55.12,8.53,56.18,15.05,1.08,6.62-21.49,8.57-31.4,26.82-8.18,15.07-.98,28.81.89,49.29,2.49,27.21-5.87,50.66-12.54,64.99,3.52,9.46,9.23,18.92,18.73,23.51,11.87,5.73,28.85,3.47,39.83-5.31,18.2-14.56,15.17-43.24,21.24-43.37,6.03-.12,5.07,28.19,18.59,33.63,16.94,6.81,38.5-29.62,55.76-23.01,12.88,4.93,6.4,27.36,23.9,41.06,11.64,9.12,23.87,6.51,44.25,7.62,31.01,1.68,45.34,10.04,72.57,17.7,43.2,12.14,118.29,33.25,185.85,8.85,20.4-7.37,44.58-20.53,64.34-38.26-6.42-16.85-13.67-33.97-21.34-51.77-17.16-39.84-56.52-96.73-134.52-208.86Z" fill="#f4d011" stroke="#231815" stroke-miterlimit="10" stroke-width=".75"/>
  <path id="chungcheong_north" d="M1291.54,2398.25c-20.38-1.11-32.61,1.5-44.25-7.62-17.49-13.7-11.01-36.12-23.9-41.06-17.25-6.61-38.81,29.83-55.76,23.01-13.52-5.44-12.56-33.75-18.59-33.63-6.07.12-3.04,28.81-21.24,43.37-10.98,8.78-27.95,11.04-39.83,5.31-9.5-4.58-15.21-14.04-18.73-23.51-2.22,4.79-4.26,8.56-5.64,11.12-25.29,46.84-59.38,31.3-102.18,87.62-9.43,12.4-21.07,30.6-31.97,31.96,1.26,2.43,2.74,4.77,4.54,6.98,11.09,13.71,30.35,19.31,29.21,30.09-.42,3.91-3.17,5.34-11.51,13.27-14.18,13.5-21.27,20.25-23.9,27.44-5.4,14.75,2.23,36.78,15.62,47.79,8.49,6.98,17.58,8.11,19.83,16.82,1.31,5.06-1.12,7.15,0,15.93.75,5.85,1.61,12.62,6.15,15.93,5.86,4.28,12.12-1.4,22.13,0,9.85,1.38,19.57,9.1,23.01,16.82,10.23,22.96-29.66,58.09-22.13,66.38,3.37,3.7,11.01-3.68,19.47,0,13.66,5.95,5.35,30.31,20.36,55.76,1.56,2.64,14.4,23.7,39.83,31.86,18.76,6.02,35.32,2.11,44.25,0,14.92-3.52,22.85-5.4,28.32-12.39,13.82-17.68-4.01-47.67,7.97-55.76,5.54-3.74,11.42,1.28,16.82-3.54,6.51-5.83,6.52-20.84,0-25.66-7.65-5.66-18.3,7.13-32.75,3.54-12.51-3.11-21.19-16.84-24.35-27.44-8.91-29.81,21.8-48.15,12.85-72.57-7.41-20.23-32.98-19.91-32.75-31.86.35-18,58.31-15.68,81.88-55.76,11.48-19.51,4.39-31.36,16.35-38.94,18.87-11.97,40.69,14.91,80.54,7.08,4.19-.82,30.45-5.99,35.4-22.13,3.27-10.65-5.66-16.56-6.2-26.55-1.29-23.93,47.53-34.49,80.52-57.31-6-1.61-11.64-3.19-16.8-4.64-27.24-7.66-41.56-16.02-72.57-17.7Z" fill="#0799d4" stroke="#231815" stroke-miterlimit="10" stroke-width=".75"/>
  <path id="chungcheong_south" d="M963.25,2637.21c-2.25-8.7-11.34-9.83-19.83-16.82-13.39-11.01-21.01-33.04-15.62-47.79.18-.49.43-.97.65-1.46,0,0,0,0,0,0-15.5-6.79-27.1-22.55-40.98-17.26-6.18,2.36-12.96,8.95-11.95,13.27.74,3.18,5.13,2.77,7.3,6.98,2.33,4.52-1.32,7.71-1.99,16.88-.32,4.37-.87,11.9,3.32,17.29,4.86,6.25,12.07,4.46,13.28,8.63,1.56,5.41-10.48,8.74-11.95,18.59-1.06,7.12,4.74,8.66,9.19,23.74,3.1,10.52,1.03,12.3,4.09,16.09,7.54,9.34,22.89,1.89,27.3,8.63.3.46.51.92.66,1.43,3.31-.77,6.53-2.02,9.59-4.09,2.17-1.46,9.86-6.65,12.89-15.93,2.68-8.2-.3-13.39,3.1-16.37,2.58-2.26,6.41-1.13,10.68.29-.12-5.69,1.37-7.89.28-12.11Z" fill="#cfdd36" stroke="#231815" stroke-miterlimit="10" stroke-width=".75"/>
  <path id="gwangju" d="M720.21,3168.97c3.8-1.83,7,2.39,11.95,0,0,0,3.54-1.71,9.29-14.6,0,0,6.38-6.7,10.62-5.97,4.92.84,3.31,11.02,8.63,13.94,8.99,4.94,24.15-18.41,37.17-14.02,5.52,1.87,9.22,8.24,15.27,18.66,4.05,6.99,5.29,11.56,10.62,14.6,5.61,3.2,8.88.78,11.28,3.32,6.62,6.99-6.01,38.23-23.23,40.49-6.43.84-7.06-3.2-15.27-3.32-16.08-.23-21.46,15.22-34.52,13.28-5.56-.83-11.09-4.6-13.94-9.29-4.43-7.29-.51-13.69-4.65-17.26-5.02-4.33-12.8,3.38-19.91,0-11.53-5.47-12.05-35.62-3.32-39.83Z" fill="#e9abb4" stroke="#231815" stroke-miterlimit="10" stroke-width=".75"/>
  <path id="jeolla_north" d="M657.81,3087.32c12.36,19.75,5.65,35.23,17.92,43.14,15.56,10.04,48.33-.65,59.07-20.58,8.07-14.96-.19-27.88,11.28-40.49.88-.97,10.7-11.46,23.23-10.62,22.87,1.54,33.7,39.47,44.47,36.51,8-2.2,4.96-23.89,16.59-27.88,4.38-1.5,10.71-.45,13.94,3.32,9.13,10.65-14.85,33.2-5.97,51.11,4.89,9.87,18.35,15.49,27.95,13.28,8.36-1.93,8.53-8.58,15.86-13.28,21.93-14.05,56.64,22.33,77.66,9.29,11.16-6.92,7.38-20.89,17.26-23.9,15.49-4.71,28.75,28.46,47.13,25.89,15.59-2.18,28.79-29.22,27.21-52.44-1.55-22.86-16.18-23.53-21.9-48.45-7.46-32.48,9.98-63.57,21.24-83.63,8.35-14.89,12.81-22.83,22.57-30.53,14.46-11.41,25.87-10.69,42.48-26.55,10.61-10.13,12.21-16.39,12.61-19.91,1.29-11.3-6.67-20.67-9.29-23.9-1.88-2.32-3.62-4.76-5.3-7.26-9.32,2.13-24.58,4.94-41.76-.57-14.14-4.54-24.38-13.06-30.96-20.19-1.25.24-2.26.68-2.96,1.7-2.98,4.32,4.42,10.91,1.33,16.59-2.54,4.66-10.13,5.05-11.28,5.11-9.59.49-13.88-6.79-18.59-5.11-5.8,2.07-.79,16.51-5.97,19.25-6.48,3.42-17.75-16.28-33.19-14.14-6.79.94-8.19,5.25-11.95,4.18-10.96-3.11-1.35-40.33-14.25-47.79-15.57-9.01-45.88,35.8-71.37,26.55-12.6-4.57-9.46-17.06-27.21-27.88-17.99-10.96-44.3-12.21-52.44-1.33-6.77,9.06,3.6,20.49-3.98,29.87-6.46,8-17.07,3.49-31.86,10.62-13.56,6.54-16.69,16.32-21.9,20.31-4.56,3.5-12.46,3.83-22.53,1.53-13.99,2.39-35.64-2.96-39.49,6.74-5.28,13.3,36.15,32.64,31.53,61.07-4.19,25.76-54.91,60.78-51.44,72.35,7,23.36,57.26,9.19,60.29,18.92,3.99,12.81-39.68,14.17-54.1,33.3-4.09,5.43-9.27,12.92-14.84,21.46,4.72,3.72,9.16,8.33,12.92,14.35Z" fill="#0d6434" stroke="#231815" stroke-miterlimit="10" stroke-width=".75"/>
  <g id="jeolla_south">
    <path id="jeolla_south-2" data-name="jeolla_south" d="M519.93,3487.36c2.08-20.73,52.32-27.08,54.43-52.66.37-4.53-.77-9.52,2.21-11.51,4.97-3.31,17.15,4.51,23.9,12.39,11.32,13.23,16.38,37.21,5.31,56.64-12.43,21.81-41.63,31.66-63.28,21.68-8.73-4.02-23.75-14.74-22.57-26.55Z" fill="#d76ea6" stroke="#231815" stroke-miterlimit="10" stroke-width=".75"/>
    <path id="jeolla_south-3" data-name="jeolla_south" d="M1081.29,3230.7c-4.62-3.57-8.42-2.58-13.94-7.97-9.16-8.94-4.25-17.12-12.61-26.55-7.78-8.78-15.55-5.66-19.91-13.94-3.51-6.66-.21-11.96,0-21.24.24-10.64-3.79-19.01-9.35-28.18-.43.1-.84.24-1.27.31-18.38,2.57-31.64-30.6-47.13-25.89-9.87,3-6.1,16.97-17.26,23.9-21.02,13.04-55.73-23.34-77.66-9.29-7.33,4.69-7.5,11.35-15.86,13.28-9.6,2.21-23.06-3.41-27.95-13.28-8.87-17.9,15.1-40.46,5.97-51.11-3.23-3.77-9.56-4.82-13.94-3.32-11.63,3.99-8.6,25.68-16.59,27.88-10.78,2.96-21.6-34.96-44.47-36.51-12.53-.84-22.35,9.65-23.23,10.62-11.48,12.61-3.21,25.53-11.28,40.49-10.75,19.93-43.51,30.62-59.07,20.58-12.27-7.92-5.56-23.39-17.92-43.14-3.77-6.02-8.2-10.63-12.92-14.35-17.14,26.26-38.04,62.47-42.68,79.43-7.15,26.12,36.58,46.13,42.15,63.89,6.14,19.58-30.31,37.89-31.64,57.8-2.52,37.84,15.77,95.2,4.09,100.89-12.15,5.93-19.5-30.57-30.09-25.11-13.66,7.04-8.85,65.39,19.47,79.65,14.25,7.18,23.23-2.47,33.63,5.31,18.69,13.99-3.31,50.41,17.7,77,8.87,11.22,14.02,25.03,26.44,20.8,42.81-14.6,5.04-35.01,41.82-51.44,31.2-13.94,17.26-65.38,32.52-62.39,5.56,1.09.66,33.19.11,55.25-.41,16.44,37.99,12.14,53.1,0,16.5-13.25-1.66-47.11,24.64-67.04,30.01-22.73,51.58-45.63,76.14-51.27,9.8-2.25,8.12,6.34,7.19,18.03-2.57,32.23-54.89,38.87-54.87,61.95.02,19.05,43.03,15.6,69.03,38.06,25.39,21.93,39.05-42.04,63.72-55.76,24.67-13.72-43.65-35.79-42.48-61.95.97-21.87,31.94-44.35,48.68-38.06,24.56,9.24,10,77.27,30.98,83.19,12.67,3.57,34.22-16.66,41.6-39.83,12.28-38.57-19.67-69.77-5.31-85.85,4.54-5.09,10.41-4.93,17.96-4.4,1.84-11.67,3.33-32.07-7.49-40.44ZM811.81,3225.39c-6.43.84-7.06-3.2-15.27-3.32-16.08-.23-21.46,15.22-34.52,13.28-5.56-.83-11.09-4.6-13.94-9.29-4.43-7.29-.51-13.69-4.65-17.26-5.02-4.33-12.8,3.38-19.91,0-11.53-5.47-12.05-35.62-3.32-39.83,3.8-1.83,7,2.39,11.95,0,0,0,3.54-1.71,9.29-14.6,0,0,6.38-6.7,10.62-5.97,4.92.84,3.31,11.02,8.63,13.94,8.99,4.94,24.15-18.41,37.17-14.02,5.52,1.87,9.22,8.24,15.27,18.66,4.05,6.99,5.29,11.56,10.62,14.6,5.61,3.2,8.88.78,11.28,3.32,6.62,6.99-6.01,38.23-23.23,40.49Z" fill="#d76ea6" stroke="#231815" stroke-miterlimit="10" stroke-width=".75"/>
  </g>
  <path id="daegu" d="M1283.74,3005.68c17.33,6.44,33.93-22.13,49.78-16.59,2.47.86,4.21,2.44,5.68,4.28,4.82-16.21,2.25-33.89,8.48-35.03,5.89-1.08,9.77,14.45,19.91,14.6,8.41.13,15.97-10.39,19.25-17.92,6.3-14.48-1.52-21.9,5.31-33.85,5.57-9.75,11.99-6.92,16.59-15.93,7.64-14.94-3.39-35.7-6.64-41.82-6.23-11.72-9.89-11.26-12.61-20.33-3.61-12.03-2.08-29.12,7.3-35.07,7.87-4.99,13.8,2.62,27.88,0,13.5-2.51,30.59-13.69,30.53-28.23-.04-10.32-8.71-21.49-17.92-22.57-8.75-1.02-10.93,7.89-25.22,11.95-1.27.36-21.03,5.72-31.15-3.98-5.93-5.69-3.23-11.46-10.01-18.59-5.29-5.57-11.44-6.78-17.92-8.63-31.13-8.89-37.31-23.24-47.13-18.59-9.94,4.71-13.75,24.25-7.3,32.43,2.1,2.66,4.22,2.77,20.36,8.72,9.91,3.65,14.86,5.48,15.48,5.97,14.93,11.95.54,48.16,11.28,53.17,3.75,1.75,6.49-2.22,11.95,0,6.3,2.56,11.38,11.39,9.96,18.51-2.06,10.29-15.9,8.19-29.21,22.42-12.26,13.12-12.84,28.11-17.92,27.67-5.52-.48-4.67-18.15-11.27-19.56-8.22-1.76-25.62,22.14-19.6,36.51,4.43,10.58,19.34,10.66,19.58,17.92.27,8.19-18.6,10.34-20.58,21.9-1.8,10.57,12.22,18.92,9.29,23.9-3.01,5.11-17.86-3.56-25.22,2.66-4.25,3.59-5.71,11.88-4.16,20.66.88.46,1.76.9,2.61,1.47,7.71,5.16,6.06,9.51,12.61,11.95Z" fill="#005894" stroke="#231815" stroke-miterlimit="10" stroke-width=".75"/>
  <path id="ulsan" d="M1608.53,2976.25c-5.28,3.57-7.89,11.43-15.93,11.95-1.04.07-7.98.41-12.61-4.36-5.23-5.4-1.54-11.19-5.31-17.54-6.56-11.04-27.2-9.49-29.87-9.29-4.78.36-17.58,2.1-27.21,11.95-7.48,7.65-5.42,12.39-11.28,20.58-3.09,4.32-6.56,7-10.23,8.91,1.83,1.44,3.04,3,3.37,4.59,1.48,7.12-14.6,12.21-13.94,23.9.43,7.58,7.63,13.02,10.62,15.27,8.55,6.44,16.26,6.03,25.22,7.97,18.3,3.94,39.72,17.2,41.15,30.53.45,4.23-1.25,7.21-6.64,13.15,13.05,2.33,23.26,5.74,31.42,14.5,3.71,3.99,5.78,7.77,7.45,11.06,3.76-5.34,8.24-9.53,14.49-11.91,12.72-4.85-4.28-25.33,2.32-38.17,6.76-13.14,32.61-11.05,31.86-22.9-1.21-19.22,2.06-40.84,6.28-62.97-14.88-9.56-32.47-13.09-41.17-7.21Z" fill="#111b39" stroke="#231815" stroke-miterlimit="10" stroke-width=".75"/>
  <path id="busan" d="M1555.88,3093.84c-3.22,3.55-7.76,8.16-13.94,14.73-37.29,39.61-36.81,46.82-51.11,51.11-17.85,5.36-30.28-2.38-38.5,7.3-4.99,5.88-2.86,11.61-5.31,21.9-3.51,14.73-12.85,23.92-20.3,30.69,20.82,6.59,32.33,14.11,52.97,10.83,14.49-2.3,34.88-9.05,64.16-32.3,34.08-27.06,37.9-60.2,50.89-78.69-1.67-3.29-3.74-7.07-7.45-11.06-8.16-8.76-18.36-12.17-31.42-14.5Z" fill="#bd1e6c" stroke="#231815" stroke-miterlimit="10" stroke-width=".75"/>
  <g id="gyeongsang_south">
    <path id="gyeongsang_south-2" data-name="gyeongsang_south" d="M1331.92,3325.4c-8.03-.91-17.03-17.25-11.51-28.32,5.08-10.17,19.78-10.6,21.24-10.62,13.76-.2,23.3,9.7,25.22,7.52,2.28-2.59-12.33-15.37-8.85-22.13,2.6-5.06,12.09-.44,19.47-6.64,9.01-7.57,3.94-22.1,11.06-25.22,3.87-1.7,9.97.57,13.28,4.43,9.83,11.45-10.91,30.03-5.75,57.53,3.35,17.87,15.61,28.65,11.41,33.19-3.65,3.94-12.79-4.29-20.26,0-10.83,6.22-1.88,29.43-13.72,37.17-4.8,3.13-12.78,3.58-16.37,0-6.86-6.82,6.77-23.69,1.77-49.12-1.71-8.68-4.05-10.55-5.75-11.06-6.67-1.99-12.8,14.24-21.24,13.28Z" fill="#6f2a83" stroke="#231815" stroke-miterlimit="10" stroke-width=".75"/>
    <path id="gyeongsang_south-3" data-name="gyeongsang_south" d="M1098.28,3310.36c.72-13.72,11.23-29.34,23.9-30.09,8.02-.48,17.29,5,17.7,10.62.46,6.29-10.52,7.77-12.39,16.24-2.39,10.82,11.4,27.13,23.45,26.68,11.87-.44,15.54-16.87,22.57-15.49,9.6,1.89,19.76,35.9,3.98,50-8.27,7.39-23.39,9.07-30.09,2.65-7.87-7.54,1.77-19.03-5.3-25.22-18.09-15.85-3.55,26.11-19.04,20.36-31.88-11.84-24.98-51.98-24.78-55.76Z" fill="#6f2a83" stroke="#231815" stroke-miterlimit="10" stroke-width=".75"/>
    <path id="gyeongsang_south-4" data-name="gyeongsang_south" d="M1447.02,3188.88c2.46-10.3.32-16.03,5.31-21.9,8.22-9.69,20.64-1.95,38.5-7.3,14.29-4.29,13.82-11.5,51.11-51.11,16.53-17.57,21.3-21.11,20.58-27.88-1.43-13.33-22.85-26.59-41.15-30.53-8.96-1.93-16.68-1.52-25.22-7.97-2.99-2.25-10.19-7.68-10.62-15.27-.66-11.68,15.41-16.77,13.94-23.9-1.63-7.86-24.01-15.18-43.14-8.63-21.91,7.5-24.31,27.96-40.49,27.88-11.63-.06-13.01-10.65-27.88-11.95-15.78-1.37-21.11,9.97-31.86,6.64-13.47-4.17-10.31-23.6-22.57-27.88-15.86-5.53-32.45,23.04-49.78,16.59-6.56-2.44-4.9-6.79-12.61-11.95-19.98-13.36-49.11,3.81-53.1-3.32-2.35-4.2,8.24-9.23,10.62-21.24,3.7-18.7-15.08-41.15-34.52-50.45-4.84-2.32-1.92-.08-29.87-7.97-21.19-5.98-28.39-8.82-35.7-13.94-4.52-3.16-7.24-5.91-9.57-8.54-.97,1.03-2,2.1-3.19,3.23-16.61,15.86-28.02,15.14-42.48,26.55-9.76,7.7-14.21,15.64-22.57,30.53-11.26,20.07-28.7,51.16-21.24,83.63,5.72,24.92,20.35,25.59,21.9,48.45,1.58,23.22-11.63,50.26-27.21,52.44.43-.06.85-.21,1.27-.31,5.56,9.17,9.58,17.54,9.35,28.18-.21,9.28-3.51,14.58,0,21.24,4.36,8.28,12.13,5.16,19.91,13.94,8.36,9.43,3.45,17.61,12.61,26.55,5.52,5.38,9.32,4.39,13.94,7.97,10.82,8.36,9.33,28.77,7.49,40.44h0c8.87.62,20.07,1.76,34.25-4.45,27.55-12.06,32.18-36.92,44.25-34.52,15.45,3.07,7.94,43.79,32.75,58.41,14.88,8.77,23.19-9.35,53.32-3.98,32.47,5.78,31.32,28.75,51.45,23.99,8.16-1.93,4.17-18.74,3.2-43.02-.89-22.13,3.06-31.36,17.7-45.14,14.69-13.82,35.93-12.49,60.18-10.62,17.58,1.35,30.36,4.44,40.84,7.75,7.45-6.77,16.79-15.96,20.3-30.69Z" fill="#6f2a83" stroke="#231815" stroke-miterlimit="10" stroke-width=".75"/>
  </g>
  <path id="gyeongsang_north" d="M1672.62,2810.46c-14.7-.63-25,37.4-40.71,37.61-8.2.11-17.06-11.91-16.82-22.13.26-10.6,22.52-17.58,16.93-24.78-24.23-31.2-29.75-72.51-15.27-99.9,27.21-51.44,12.92-82.01,21.9-156.98,6.96-58.1-4.91-106.73-24.35-157.76-19.76,17.74-43.94,30.9-64.34,38.26-59.5,21.49-124.8,7.69-169.05-4.21-32.99,22.82-81.81,33.38-80.52,57.31.54,9.99,9.46,15.9,6.2,26.55-4.95,16.14-31.21,21.3-35.4,22.13-39.84,7.83-61.66-19.05-80.54-7.08-11.96,7.58-4.87,19.44-16.35,38.94-23.58,40.07-81.53,37.76-81.88,55.76-.23,11.95,25.33,11.63,32.75,31.86,8.95,24.42-21.76,42.76-12.85,72.57,3.17,10.59,11.84,24.33,24.35,27.44,14.45,3.59,25.1-9.2,32.75-3.54,6.52,4.82,6.51,19.84,0,25.66-5.39,4.82-11.27-.2-16.82,3.54-11.98,8.09,5.86,38.08-7.97,55.76-5.47,6.99-13.4,8.87-28.32,12.39-.76.18-1.64.38-2.5.58,0,0,0,0,.01,0,1.68,2.5,3.42,4.94,5.3,7.26,2.62,3.23,10.59,12.6,9.29,23.9-.36,3.13-1.7,8.44-9.42,16.68h0c2.32,2.63,5.05,5.38,9.57,8.54,7.32,5.12,14.51,7.96,35.7,13.94,27.95,7.88,25.03,5.65,29.87,7.97,19.43,9.3,38.22,31.75,34.52,50.45-2.38,12.01-12.97,17.04-10.62,21.24,3.82,6.83,30.67-8.56,50.49,1.85-1.55-8.77-.09-17.07,4.16-20.66,7.37-6.22,22.22,2.45,25.22-2.66,2.93-4.98-11.09-13.33-9.29-23.9,1.97-11.57,20.85-13.72,20.58-21.9-.24-7.26-15.15-7.34-19.58-17.92-6.02-14.37,11.38-38.27,19.6-36.51,6.6,1.41,5.75,19.08,11.27,19.56,5.09.44,5.66-14.55,17.92-27.67,13.3-14.23,27.15-12.13,29.21-22.42,1.42-7.13-3.66-15.95-9.96-18.51-5.46-2.22-8.19,1.75-11.95,0-10.74-5.01,3.64-41.22-11.28-53.17-.62-.5-5.57-2.32-15.48-5.97-16.14-5.95-18.26-6.06-20.36-8.72-6.45-8.18-2.64-27.72,7.3-32.43,9.81-4.65,16,9.7,47.13,18.59,6.48,1.85,12.63,3.06,17.92,8.63,6.77,7.13,4.07,12.9,10.01,18.59,10.12,9.7,29.88,4.34,31.15,3.98,14.29-4.06,16.47-12.97,25.22-11.95,9.21,1.08,17.88,12.25,17.92,22.57.05,14.54-17.04,25.72-30.53,28.23-14.08,2.62-20-4.99-27.88,0-9.38,5.95-10.91,23.04-7.3,35.07,2.73,9.08,6.39,8.61,12.61,20.33,3.25,6.12,14.27,26.88,6.64,41.82-4.6,9.01-11.02,6.18-16.59,15.93-6.83,11.95.99,19.37-5.31,33.85-3.28,7.53-10.84,18.05-19.25,17.92-10.15-.15-14.03-15.69-19.91-14.6-6.23,1.15-3.66,18.83-8.48,35.03,5.87,7.3,6.12,20.27,16.88,23.6,10.75,3.33,16.08-8.01,31.86-6.64,14.86,1.29,16.24,11.89,27.88,11.95,16.18.08,18.58-20.38,40.49-27.88,15.27-5.23,32.56-1.62,39.78,4.04h0c3.67-1.91,7.14-4.59,10.23-8.91,5.86-8.19,3.8-12.93,11.28-20.58,9.64-9.85,22.44-11.59,27.21-11.95,2.67-.2,23.31-1.75,29.87,9.29,3.78,6.35.08,12.15,5.31,17.54,4.63,4.77,11.57,4.43,12.61,4.36,8.04-.52,10.65-8.37,15.93-11.95,8.69-5.88,26.28-2.36,41.17,7.21,6.2-32.53,14.48-66.17,13.78-95-.69-28.67,12.39-33.25,15.78-57.43,2.32-16.59.52-20.27-6.64-20.58Z" fill="#392b71" stroke="#231815" stroke-miterlimit="10" stroke-width=".75"/>
  <path id="jeju" d="M539.4,3946.01c-2.45-10.68,5.01-33.19,31.2-49.12,19.75-12.02,3.98-19.25,10.62-19.91,20.99-2.1,43.73-16.51,59.74-17.26,69-3.24,79.02-35.66,119.48-23.9,19.48,5.67,44.94,21.27,47.79,43.14,3.6,27.63-30.71,51.2-43.14,59.74-7.7,5.29-63.3,43.48-122.8,30.53-14.62-3.18-41.42-12.05-53.76.63-4.95,5.09-5.85,11.86-11.28,12.65-4.72.68-8.23-3.83-22.57-19.25-14.38-15.48-14.79-15.19-15.27-17.26Z" fill="#811f57" stroke="#231815" stroke-miterlimit="10" stroke-width=".75"/>
  <g id="incheon">
    <path id="incheon-2" data-name="incheon" d="M760.16,2211.25c-5.95-1.16-13.07-3.44-17.4-8.7-3.86-4.69-3.69-8.93-9.29-12.61-5.15-3.39-10.7-3.34-13.28-3.32-10.21.08-19.33,6.6-25.75,12.83,14.44,31.93,21.02,53.24,16.98,73.41-3.1,15.48-4.58,27.42-5.1,37.83,10.28-2.68,22.02-7.53,32.89-16.54,9.89-8.2,27.22-26.58,22.35-38.17-2.22-5.27-7.16-4.7-9.07-10.84-1.95-6.28,1.66-14.58,6.67-20.51-.16-.15-.37-.23-.51-.41-2.01-2.74-1.05-8.14,1.5-12.97Z" fill="#821b20" stroke="#231815" stroke-miterlimit="10" stroke-width=".75"/>
    <path id="incheon-3" data-name="incheon" d="M627.17,2175.65c-5.44-6.09-8.15-8.12-9.29-12.83-.55-2.25-.38-3.65,0-8.41,1.39-17.54.56-16.69,1.33-19.03,2.86-8.73,13.42-17.41,23.45-16.37,13.01,1.34,14.69,16.24,15.93,19.47,7.74,20.23,9.01,31.12,18.4,47.62,2.21,3.88,4.67,11.52,3.54,18.25-.87,5.15-2.71,6.17-3.54,6.97-11.75,11.34-40.55,6.7-45.29-5.31-1.16-2.94-1.31-7.44.89-10.6,3.86-5.56,12.41-3.18,13.72-7.1,2.66-7.97-12.01-4.67-19.14-12.66Z" fill="#821b20" stroke="#231815" stroke-miterlimit="10" stroke-width=".75"/>
    <path id="incheon-4" data-name="incheon" d="M626.93,2256.96c.58-6.22,12.32-11.49,21.15-12.83,9.97-1.51,15.22,2.12,19.91-1.77,5.24-4.35,1.76-11.46,6.2-14.29,6.82-4.36,25.05,6.07,24.34,14.45-.28,3.32-3.5,5.71-4.08,6.14-4.61,3.43-9.41,1.6-14.06,2.11-12.74,1.39-13.64,19.12-25.74,22.57-11.82,3.37-28.43-8.56-27.71-16.37Z" fill="#821b20" stroke="#231815" stroke-miterlimit="10" stroke-width=".75"/>
  </g>
  <path id="chungcheong_south-2" data-name="chungcheong_south" d="M1038.15,2821.38c.7-1.01,1.71-1.46,2.96-1.7-5.25-5.69-8.18-10.49-8.87-11.67-15.01-25.44-6.69-49.81-20.36-55.76-8.08-3.52-15.38,2.96-18.95.32-1.07,1.02-2.12,2.02-3.24,3.08-10.68,10.21-13.9,15.9-19.25,15.27-12.01-1.43-15.53-33.03-20.58-31.86-7.12,1.66-6.19,37.22-8.63,37.17-1.01-.02-.34-6.08-4.65-9.96-3.96-3.56-7.96-1.53-10.53-4.65-2.92-3.54.7-8.01,0-14.6-1.01-9.58-9.75-10.66-13.03-18.59-6.6-15.96,19.1-35.2,13.03-44.47-4.41-6.74-19.76.71-27.3-8.63-3.06-3.79-.98-5.57-4.09-16.09-4.45-15.08-10.25-16.62-9.19-23.74,1.47-9.85,13.51-13.17,11.95-18.59-1.21-4.17-8.42-2.38-13.28-8.63-4.19-5.39-3.64-12.93-3.32-17.29.67-9.17,4.32-12.36,1.99-16.88-2.17-4.21-6.56-3.8-7.3-6.98-1.01-4.33,5.77-10.92,11.95-13.27,13.88-5.29,25.48,10.47,40.98,17.26,3.02-6.67,10.03-13.39,23.24-25.98,8.33-7.93,11.09-9.37,11.51-13.27,1.15-10.78-18.11-16.38-29.21-30.09-1.79-2.21-3.28-4.55-4.54-6.98,0,0,0,0,0,0-1.15.14-2.3.16-3.43-.1-6.4-1.47-7.43-8.69-15.93-17.7,0,0-15.06-15.97-39.83-19.47-31.33-4.43-43.66,24.95-69.92,25.66-18.29.5-34.21-13.19-47.44-29.69h0c-18.6-.67-39-22.87-74.61-25.72-22.14-1.77-38.83,17.59-59.07,30.2-37.36,23.27-84.1,62.48-73.23,82.08,5.7,10.29,20.72,4.53,37.17,19.47,5.52,5.02,9.98,13.46,13.24,21.31,3.95,9.51,14.05,40.16,14.71,53.54.36,7.24-.76,12.98,1.11,23.01,1.12,6.04,3.15,16.21,11.5,23.01,5.33,4.34,14.34,8.2,18.14,4.97.65-.55,2.99-2.88,0-15.59-3.28-13.95-7.9-18.91-11.95-30.09-1.64-4.53-5.3-14.65-4.87-26.55.11-3.09.33-6.91,2.74-8.2,4.17-2.23,38.15,30.57,46.86,103.26,2.67,22.27-7.59,71.05-5.64,85.62,5.2,38.98,65.04,36.84,54.87,58.63-1.84,3.95-5.91,5.79-10.95,6.65,10.07,2.3,17.97,1.97,22.53-1.53,5.22-3.99,8.34-13.78,21.9-20.31,14.79-7.13,25.4-2.62,31.86-10.62,7.58-9.38-2.79-20.81,3.98-29.87,8.13-10.88,34.45-9.63,52.44,1.33,17.76,10.82,14.61,23.31,27.21,27.88,25.5,9.25,55.8-35.56,71.37-26.55,12.9,7.46,3.29,44.68,14.25,47.79,3.76,1.07,5.15-3.24,11.95-4.18,15.44-2.14,26.71,17.56,33.19,14.14,5.18-2.74.17-17.18,5.97-19.25,4.7-1.68,9,5.6,18.59,5.11,1.16-.06,8.75-.45,11.28-5.11,3.09-5.69-4.3-12.27-1.33-16.59Z" fill="#40833e" stroke="#231815" stroke-miterlimit="10" stroke-width=".75"/>
  <path id="kaesong" d="M724.78,2063.07c7.05-12.92,19.97-12.26,35.84-17.42-5.04-12.28-15.8-21.64-25.37-22.89-5.03-.66-11.02.75-19.25-2.99-4.03-1.83-8-3.64-9.29-7.3-2.94-8.35,11.69-16.13,9.62-23.9-1.82-6.86-16.33-12.5-26.22-8.3-19.98,8.49-25.55,59.11-5.64,78.66,3.54,3.47,3.87,2.03,14.27,8.96,12.3,8.19,18.97,14.96,23.78,19.74-1.68-8.23-2.05-16.68,2.25-24.57Z" fill="#bccb32" stroke="#231815" stroke-miterlimit="10" stroke-width=".75"/>
  <path id="hwanghae_north" d="M831.16,1615.22c-11.27-8.54-17.45-2.98-33.85-11.95-16.56-9.06-13.51-16.51-25.89-21.24-19.52-7.46-32.73,8.92-49.12,0-10.85-5.9-11.97-16.84-17.26-15.93-6.36,1.1-12.65,18.29-7.3,31.2,5.82,14.05,20.78,11.76,28.54,27.21,5.7,11.34,4.5,26.23-.66,28.54-7.94,3.56-20.67-24.67-39.83-22.57-.5.06-10.48,1.28-13.76,7.97-3.23,6.59,2.88,12.68,0,20.58-2.61,7.15-10.59,10.29-11.47,10.62-22.64,8.55-50.08-41.6-76.33-33.85-9.86,2.91-14.75,12.56-22.57,9.96-5.64-1.88-8.28-8.63-10.62-14.6-6.18-15.8-.58-22.18-5.97-29.21-8.79-11.43-32.47-5.94-35.18-5.31-7.47,1.73-24.48,7.41-24.56,15.27-.1,9.57,25.05,10.53,32.52,29.87.73,1.88,3.65,9.77.66,17.92-4.46,12.15-18.89,16.23-27.21,18.59-5.46,1.54-27.41,7.75-43.81-3.98-10.13-7.24-7.8-13.93-15.93-18.59-19.95-11.44-62.78,12.33-62.39,31.2.16,7.89,7.74,7.71,16.59,24.56,6.08,11.56,8.16,22.37,10.62,35.18,2.19,11.38,2.4,17.47,3.32,25.22,2.86,24.08,8.68,31.28,13.94,52.44,11.13,44.81-3.11,60.36,11.28,73.68,12.25,11.33,24.02,1.43,40.49,13.27,22.52,16.2,11.74,42.82,28.54,53.1,21.77,13.33,48.55-26.05,102.22-23.9,25.14,1.01,54.13,11.05,56.42,25.22,1.52,9.41-9.73,14.53-17.26,27.88-16.16,28.65-2.85,66.87,6.64,80.98,25.96,38.59,27.88,59.74,35.13,73.9-.43-6.1.39-11.37,3.41-14.57,10.53-11.19,33.26,4.01,44.25-7.97,8.23-8.97.8-23.27-2.25-38.27-4.81-4.78-11.49-11.55-23.78-19.74-10.4-6.93-10.74-5.49-14.27-8.96-19.91-19.55-14.34-70.17,5.64-78.66,9.88-4.2,24.4,1.44,26.22,8.3,2.06,7.76-12.56,15.54-9.62,23.9,1.29,3.67,5.27,5.47,9.29,7.3,8.23,3.74,14.22,2.33,19.25,2.99,9.57,1.25,20.33,10.61,25.37,22.89,7.29-2.37,15.2-5.96,23.46-12.67,20.41-16.58,15.93-30.24,36.7-62.48-1.76-4.08-4.12-7.99-7.53-11.45-9.41-9.53-19.38-8.84-22.57-17.92-4.16-11.88,10.07-21.14,5.97-31.86-3.49-9.14-15-5.41-25.89-13.94-22.14-17.36-.06-52.83-23.9-87.62-7.79-11.37-15.8-15.83-13.94-22.6,2.82-10.23,22.88-6.49,41.82-21.87,14.22-11.55,19.67-27.28,21.24-32.52,8.66-29.01-7.35-52.89,1.33-58.41,6.31-4.02,14.88,8.57,28.4,5.31,11.21-2.7,19.42-14.75,21.39-25.89,2.76-15.64-6.8-29.59-15.93-36.51Z" fill="#3a9f47" stroke="#231815" stroke-miterlimit="10" stroke-width=".75"/>
  <path id="hwanghae_south" d="M369.19,1745.43c-20.79-7.19-53.88-8.47-76.88,8.85-14.44,10.88-13.2,20.27-23.9,23.9-11.17,3.79-22.05-3.22-33.25-13.04-.66,5.6.58,12.07-3.7,16.58-10.09,10.6-37.19-4.5-41.6,2.66-3.7,6.01,14.7,17.83,12.39,33.19-1.43,9.51-9.9,14.31-15.93,19.47-29.45,25.19-9.12,66.1-32.3,97.79-23.07,31.54-67.25,23.87-67.26,35.69-.01,13.51,57.71,37.01,117.71,31.13,31.8-3.12,60.52-14.12,69.03-1.77,5.3,7.69-.4,19.84-.89,20.84-15.64,32.31-82.5,19.76-85.85,35.36-2.76,12.88,39.72,35.89,76.11,46.91,43.05,13.03,52.81.58,89.39,18.53,9.72,4.77,28.84,15.38,35.84,8.9,2.86-2.64,1.53-6.12,3.1-20.97,1.48-14.04,2.23-21.06,5.31-26.08,7.94-12.91,23.12-11.26,23.9-18.89.43-4.23-4.06-6.47-17.26-18.82-12.38-11.59-18.57-17.38-17.7-19.9,2.56-7.39,46.36-9.21,61.51,12.42,9.34,13.33-.41,23.88,10.18,47.09,6.29,13.8,18.87,30.1,28.76,28.24,7.46-1.4,6.94-11.93,20.36-20.72.74-.48,15.32-9.86,21.24-5.15,5.45,4.34-2.86,15.52,3.98,25.87,3.98,6.01,9.23,5.95,11.06,12.39,1.65,5.83-1.93,8.38,0,12.6,2.92,6.37,15.61,10.32,22.13,5.09,6.28-5.05,3.85-16.26,3.54-17.69-2.04-9.41-8.33-11.58-7.08-16.47,1.45-5.67,11.32-8.25,17.7-8.68,9.34-.62,12.38,4.11,19.47,4.39,6.03.24,9.39-9.17,26.11-17.51,6.39-3.19,15.32-2.79,22.53-5.49-1.55-2.46-3.18-4.99-4.94-7.61-9.49-14.11-22.8-52.33-6.64-80.98,7.53-13.35,18.77-18.47,17.26-27.88-2.28-14.17-31.28-24.21-56.42-25.22-53.67-2.16-80.45,37.22-102.22,23.9-16.8-10.28-6.02-36.9-28.54-53.1-16.46-11.84-28.24-1.94-40.49-13.27-14.39-13.32-.15-28.87-11.28-73.68-5.26-21.15-11.08-28.35-13.94-52.44-.28-2.33-.49-4.51-.71-6.73-7.74-8.24-17.08-15.31-29.82-19.71Z" fill="#1ab18f" stroke="#231815" stroke-miterlimit="10" stroke-width=".75"/>
  <path id="gangwon_north" d="M1238.49,1736.47c-9.96-5.01-17.75,2.9-25.67-5.31-17.59-18.25-13.01-12.27-39.49-36.84-12.04-11.16-16.42-7.9-35.73-25.11-13.32-11.87-19.97-17.8-25.25-23.9-27.33-31.55-24.44-62.78-39.36-64.61-10.68-1.31-17.41,14.06-27.44,10.62-8.48-2.92-6.74-14.98-15.93-18.59-10-3.92-17.75,8.14-27.44,4.43-11.07-4.24-12.57-24.42-15.28-23.9-2.55.49,1.28,17.76-4.19,20.36-5.03,2.39-15.32-8.87-20.36-15.93-5.76-8.09-12.07-16.96-9.73-25.66,3.42-12.73,21.16-9.51,30.09-25.67,4.9-8.86,6.23-21.89,0-30.98-4.63-6.75-11.9-9.05-14.16-9.73-10.26-3.09-16.52,1.21-42.48,8.71-14.39,4.15-21.58,6.23-27.44,6.34-18.87.36-27.86-8.17-32.75-3.54-6.39,6.05,7.48,22.05,0,34.52-6.06,10.1-19.36,6.6-22.13,15.05-2.87,8.75,10.67,14.76,13.2,34.52.42,3.26,1.83,14.34-3.46,17.7-5.03,3.19-12.08-3.15-15.93,0-3.6,2.95.08,10.57,0,17.7-.07,6.68-3.45,12.65-7.83,17.67.48.32.92.54,1.41.91,9.13,6.91,18.69,20.87,15.93,36.51-1.96,11.14-10.18,23.19-21.39,25.89-13.51,3.25-22.08-9.33-28.4-5.31-8.68,5.52,7.33,29.4-1.33,58.41-1.57,5.25-7.02,20.97-21.24,32.52-18.94,15.38-39,11.65-41.82,21.87-1.87,6.77,6.15,11.23,13.94,22.6,23.84,34.78,1.76,70.26,23.9,87.62,10.88,8.53,22.39,4.8,25.89,13.94,4.1,10.72-10.14,19.98-5.97,31.86,3.18,9.08,13.16,8.39,22.57,17.92,3.42,3.46,5.78,7.38,7.53,11.45,0,0,0,0,0,0,.46-.72.87-1.39,1.36-2.13,8.54-12.88,19.67-29.45,34.85-42.62,6.73-5.84,14.18-11.08,22.68-14.91,34.27-15.44,48.58,6.61,117.71,7.08,53.58.36,53.26-12.83,105.32-9.73,45.77,2.73,54.66,13.44,80.54,5.31,41.08-12.91,62.19-53.58,65.49-60.18,18.48-36.92,19.52-67.93,19.52-67.93,0,0-12.59-40.29-29.74-48.92Z" fill="#f4d011" stroke="#231815" stroke-miterlimit="10" stroke-width=".75"/>
  <path id="nampo" d="M391.65,1610.24c-6.29-1.35-12.51,12.84-25.22,11.95-6.58-.46-6.99-4.41-15.93-7.3-10-3.23-25.73-3.54-32.52,4.65-5.82,7.01-.65,14.93-6.64,20.86-5.74,5.7-16.09,3.96-21.24,3.03-8.04-1.46-14.29-4.31-19.48-7.65-4.33,7.7-8.96,16.16-13.93,25.57-5.32,10.07-16.56,32.05-8.85,52.22,2.51,6.57,8.28,16.19,14.6,15.93,9.28-.39,13.44-21.83,15.49-21.24,2.75.79.54,40.88-17.7,47.35-8.42,2.98-15.11-3.01-21.24,1.77-2.6,2.03-3.47,4.78-3.82,7.76,11.19,9.82,22.08,16.82,33.25,13.04,10.69-3.63,9.45-13.02,23.9-23.9,23.01-17.32,56.09-16.04,76.88-8.85,12.75,4.41,22.08,11.47,29.82,19.71h0s0,0,0-.01c-.11-1.06-.22-2.14-.34-3.24-.03-.28-.06-.55-.09-.84-.14-1.22-.29-2.49-.46-3.83-.03-.27-.08-.55-.11-.83-.15-1.1-.32-2.26-.51-3.46-.07-.43-.13-.85-.21-1.3-.26-1.56-.54-3.19-.88-4.98-2.46-12.8-4.54-23.62-10.62-35.18-8.86-16.84-16.43-16.67-16.59-24.56-.03-1.31.2-2.64.57-3.99.12-.42.31-.84.46-1.26.34-.94.72-1.88,1.22-2.82.25-.46.53-.92.81-1.38.58-.94,1.22-1.87,1.95-2.79.31-.4.62-.79.96-1.19.92-1.08,1.93-2.15,3.03-3.2.21-.21.41-.42.63-.62,5.8-5.37,13.6-10.08,21.77-13.17,0,0,0,0,0,0-.34-19.5-.97-44.53-8.94-46.25Z" fill="#19865d" stroke="#231815" stroke-miterlimit="10" stroke-width=".75"/>
  <path id="pyongyang" d="M400.59,1656.49s0,0,0,0c11.17-4.22,22.94-5.4,31-.78,8.13,4.66,5.8,11.34,15.93,18.59,16.4,11.73,38.35,5.52,43.81,3.98,8.32-2.35,22.76-6.43,27.21-18.59,2.99-8.15.06-16.04-.66-17.92-7.48-19.34-32.63-20.29-32.52-29.87.08-7.86,17.09-13.53,24.56-15.27,2.71-.63,26.39-6.12,35.18,5.31,5.4,7.02-.21,13.41,5.97,29.21,2.34,5.98,4.98,12.72,10.62,14.6,7.82,2.61,12.71-7.05,22.57-9.96,25.42-7.5,51.95,39.13,74.15,34.33-1.72-4.72-3.73-9.52-5.65-14.09-5.43-12.91-11.83-28.12-26.14-40.49-17.97-15.53-35.03-15.01-36.51-25.89-1.23-9.04,9.85-14.61,7.3-19.91-3.91-8.14-30.52,3.94-42.48-8.63-6.56-6.89-1.56-13.67-7.97-19.91-6.88-6.7-16.86-3.02-49.78,0-28.9,2.65-34.52,1.03-39.16-1.99-10.22-6.66-8.06-15.17-17.92-20.58-12.79-7.01-34.53-2.6-39.16,7.97-6.37,14.53,23.36,32.05,16.59,51.77-2.19,6.39-5.69,5.65-16.59,19.25,0,0-4.14,5.18-9,12.73,7.68,2.29,8.31,26.88,8.64,46.12Z" fill="#0d6434" stroke="#231815" stroke-miterlimit="10" stroke-width=".75"/>
  <path id="pyeongan_south" d="M660.58,1669.65c.88-.33,8.86-3.47,11.47-10.62,2.88-7.89-3.23-13.99,0-20.58,3.28-6.69,13.26-7.91,13.76-7.97,19.16-2.1,31.88,26.12,39.83,22.57,5.17-2.31,6.36-17.2.66-28.54-7.77-15.46-22.72-13.16-28.54-27.21-5.34-12.9.95-30.1,7.3-31.2,5.28-.91,6.41,10.03,17.26,15.93,16.38,8.92,29.6-7.46,49.12,0,12.38,4.73,9.33,12.18,25.89,21.24,16.4,8.97,22.58,3.41,33.85,11.95-.49-.37-.93-.59-1.41-.91,4.38-5.02,7.75-10.99,7.83-17.67.08-7.14-3.6-14.75,0-17.7,3.85-3.15,10.9,3.19,15.93,0,5.3-3.36,3.88-14.44,3.46-17.7-.38-2.96-1.05-5.54-1.84-7.94-5.83-2.26-11.79-3.35-17.23-2.57-4.64.66-9.6,2.76-14.16,0-7.77-4.69-2.12-16.02-8.85-25.67-5.7-8.16-19.81-10.27-47.79-14.16-19.74-2.74-22.9-1.7-25.66-5.31-8.25-10.78,13.61-28.36,11.5-58.41-1.3-18.59-10.07-17.56-12.39-37.17-2.64-22.3,8.49-25.32,16.82-64.61,5.59-26.36,2.91-36.02,13.28-49.56,4.41-5.76,12.59-16.44,24.78-17.7,20.16-2.08,28.14,23.98,52.14,23.9.95,0,19.19-.3,25.74-11.51,10.76-18.43-24.17-42.23-15.05-67.26,6.01-16.47,24.59-15.68,31.86-38.94,1.52-4.86,4.48-14.34,0-22.13-5.14-8.93-15.07-6.95-19.47-15.05-5.26-9.69,5.39-19.05,3.54-29.21-2.82-15.45-34.13-30.05-60.18-27.44-71.66,7.18-103.05,144.52-155.62,137.18-10.48-1.46-21.74-8.67-26.69-3.54-7.89,8.19,16.73,30.68,9.74,51.33-7.55,22.28-49.4,35.01-81.42,27.44-20.65-4.88-22.76-14.79-34.85-12.39-24.85,4.92-24.57,48.47-55.42,57.53-10.99,3.23-11.2-2.25-25.66,0-29.07,4.51-38.13,28.16-65.27,45.14-9.68,6.06-23.98,12.57-44.28,15.4-6.42,7.32-14.15,17.12-18.99,30.63-13.56,37.86,6.29,59.98-6.08,100.23-8.54,27.77-38.84,96.34-38.84,96.34,0,0,11.44,6.19,19.48,7.65,5.15.93,15.5,2.67,21.24-3.03,5.99-5.94.82-13.85,6.64-20.86,6.79-8.19,22.52-7.88,32.52-4.65,8.94,2.89,9.35,6.84,15.93,7.3,12.71.89,18.93-13.3,25.22-11.95.1.02.19.09.3.12,4.86-7.56,9-12.73,9-12.73,10.91-13.6,14.4-12.86,16.59-19.25,6.77-19.72-22.96-37.25-16.59-51.77,4.63-10.57,26.37-14.98,39.16-7.97,9.86,5.4,7.71,13.92,17.92,20.58,4.64,3.03,10.26,4.64,39.16,1.99,32.92-3.02,42.91-6.7,49.78,0,6.41,6.25,1.41,13.02,7.97,19.91,11.96,12.57,38.57.49,42.48,8.63,2.55,5.3-8.53,10.88-7.3,19.91,1.48,10.87,18.54,10.35,36.51,25.89,14.31,12.37,20.71,27.58,26.14,40.49,1.92,4.57,3.93,9.37,5.65,14.09" fill="#36aae1" stroke="#231815" stroke-miterlimit="10" stroke-width=".75"/>
  <path id="pyeongan_north" d="M72.16,1125.04c-35.88,27.13-65.74,45.26-64.03,62.53.33,3.36,9.65,23.46,11.37,28.62,7.71,23.15-26.47,18.34-17.66,35.84,12.35,24.56,34.9,63.9,65.68,75,11.48,4.14,31.54,5.88,34.85,14.93,2.89,7.91-4.64,9.95-9.68,21.62-1.64,3.8,1.49,14.89,8.35,15.55,12.56,1.21,36.84-20.69,34.63-52.1-1.78-25.31,42.26,42.26,71.24,40.05,37.01-2.82,26.99,40.14,44.47,48.68,34.54,16.87,89.05-32.34,93.81-23.9,1.98,3.52-3.52,8.59-10.65,16.72,20.3-2.82,34.6-9.34,44.28-15.4,27.15-16.97,36.2-40.62,65.27-45.14,14.46-2.25,14.68,3.23,25.66,0,30.85-9.06,30.57-52.6,55.42-57.53,12.09-2.4,14.2,7.51,34.85,12.39,32.02,7.57,73.87-5.15,81.42-27.44,7-20.65-17.63-43.14-9.74-51.33.08-.08.2-.1.28-.18-13.82-8.62-26.61-5.97-50.43-24.6-34.61-27.08-33-52.65-61.81-61.95-21.33-6.89-26.11,5.87-48.68,0-35.44-9.22-61.53-50.56-65.49-87.62-2.74-25.62,7.06-30.9,4.43-50.45-3.15-23.35-20.68-41.98-40.11-55.94-42.27,18.3-102.01,29-173.4,79.84-57.46,40.92-40.22,38.18-124.34,101.78Z" fill="#2e3b92" stroke="#231815" stroke-miterlimit="10" stroke-width=".75"/>
  <path id="jagang" d="M821.76,497.57c-38.34-11.06-100.5,28.86-115.94,79.65-10.68,35.15,3.78,66.35-20.36,90.71-9.83,9.92-13.01,5.53-25.66,16.82-27.64,24.64-17.55,50.09-40.71,75.23-17.57,19.07-27.66,6.25-50,27.88-29.43,28.49-23.86,56.79-49.56,69.47-22.36,11.03-37.3-6.92-62.84,6.64-21.76,11.55-31.77,30.99-35.84,38.06-11.71,20.33-28.97,31.9-50.95,41.41,19.43,13.97,36.95,32.59,40.11,55.94,2.64,19.55-7.16,24.82-4.43,50.45,3.96,37.06,30.05,78.4,65.49,87.62,22.56,5.87,27.35-6.89,48.68,0,28.81,9.3,27.19,34.88,61.81,61.95,23.82,18.63,36.61,15.97,50.43,24.6-.08.08-.2.1-.28.18,4.95-5.13,16.21,2.08,26.69,3.54,50.63,7.08,81.64-120.05,147.9-135.82,0,0,0,0,0,0,1.24-31.02,6.1-69.37,33.83-90.74,17.72-13.65,28.16-7.57,61.07-26.55,22.81-13.15,59.07-34.07,67.37-69.03,6.26-26.37-9.5-35,0-66.38,5-16.51,16.55-37.77,30.36-39.64,2.68-11.11,3.35-21.36-2.15-30.94-3.64-6.34-11.22-14.56-19.25-13.94-12.01.93-11.8,20.64-26.55,28.54-19.87,10.64-57.4-5.24-66.38-28.54-5.64-14.63,4.3-20.97-2.66-36.51-7.38-16.49-20.77-14.28-29.87-32.52-6.88-13.79-.55-17.73-7.3-32.52-9.76-21.39-27.55-23.17-26.55-33.19,1.43-14.28,37.92-13.83,43.81-35.18,2.51-9.11-3.1-12.93,0-24.56,1.52-5.68,4.35-10.27,7.46-14.01-24.47-30.28-36.94-45.49-47.73-48.6Z" fill="#603d94" stroke="#231815" stroke-miterlimit="10" stroke-width=".75"/>
  <path id="ryanggang" d="M1291.26,410.39c-81.38-5.06-132.48-15.58-137.62-1.77-2.72,7.31,10.97,11.95,19.47,34.52,10.81,28.7-3.96,40.8,4.43,65.49,9.69,28.54,33.06,23.06,46.91,53.54,16.02,35.26-2.4,70.9-3.54,73.01-.87,1.62-19.91,36.21-41.15,33.63-15.24-1.85-13.97-22.97-33.19-28.32-23.26-6.48-35.64,11.37-66.82,12.39-25.49.83-26.73-10.79-68.59-21.68-49.31-12.83-55.38,1.27-80.54-11.95-19.73-10.37-18.53-20.38-61.07-73.01-.02-.03-.04-.05-.06-.07-3.12,3.74-5.95,8.33-7.46,14.01-3.1,11.63,2.51,15.45,0,24.56-5.88,21.35-42.38,20.89-43.81,35.18-1,10.02,16.79,11.79,26.55,33.19,6.75,14.79.42,18.73,7.3,32.52,9.1,18.24,22.49,16.03,29.87,32.52,6.95,15.54-2.98,21.88,2.66,36.51,8.98,23.3,46.5,39.19,66.38,28.54,14.75-7.9,14.54-27.61,26.55-28.54,8.03-.62,15.61,7.6,19.25,13.94,5.5,9.58,4.83,19.83,2.15,30.94h0c.51-.07,1.01-.17,1.52-.19,10.06-.3,14.37,10.15,21.55,7.97,10.82-3.3,4.22-27.98,18.59-41.15,12.98-11.9,39.68-11.3,47.79,0,8.52,11.87-4.54,34.11-17.26,55.76-24.61,41.9-39.35,39.69-42.48,58.41-6.5,38.89,55.78,56.44,54.43,104.87-.91,32.54-29.93,57.07-19.44,69.03,4.83,5.5,14.46,4.28,16.79,3.98,30.94-3.93,32.57-55.66,65.05-66.38,22.62-7.46,31.71,14.38,51.77,9.29,49.18-12.47,32.34-153.22,88.94-172.58,26.09-8.92,51.87,13.39,65.05-1.33,12.93-14.44-8.65-39.52,5.31-62.39,10.6-17.36,36.91-25.6,58.41-19.91,28.21,7.46,39.11,36.5,39.83,38.5.06.17.09.32.14.49,4.63-4.78,8.78-10.47,11.36-17.52,7.03-19.18.37-40.51-10.62-75.67-10.22-32.71-16.17-37.1-13.27-50.45,5.15-23.77,28.21-29.17,26.34-45.14-1.76-15.04-22.5-12.75-34.3-31.86-18.42-29.82,12.9-66.4-6.64-87.62-9.51-10.32-23.63-8.95-25.22-18.59-.94-5.7,3.2-11.06,14.6-22.57,21.03-21.21,29.48-25.73,34.52-31.86,5.14-6.26,7.1-14.79,7.08-24.19-10.49,9.04-23.04,17.75-37.83,24.42-10.31,4.65-33.25,13.52-129.65,7.52Z" fill="#994595" stroke="#231815" stroke-miterlimit="10" stroke-width=".75"/>
  <path id="hamgyeong_south" d="M1462.86,942.72c-8.96-16.28-17.89-31.87-20.05-54.43-4.46-46.72,24.53-69.67,11.95-104.87-.72-2-11.62-31.04-39.83-38.5-21.5-5.69-47.81,2.55-58.41,19.91-13.96,22.87,7.62,47.96-5.31,62.39-13.18,14.71-38.96-7.59-65.05,1.33-56.61,19.36-39.76,160.11-88.94,172.58-20.07,5.09-29.15-16.75-51.77-9.29-32.48,10.71-34.11,62.44-65.05,66.38-2.33.3-11.96,1.52-16.79-3.98-10.49-11.96,18.53-36.49,19.44-69.03,1.35-48.43-60.93-65.98-54.43-104.87,3.13-18.72,17.87-16.51,42.48-58.41,12.72-21.65,25.78-43.88,17.26-55.76-8.11-11.3-34.81-11.9-47.79,0-14.36,13.17-7.77,37.86-18.59,41.15-7.18,2.19-11.49-8.26-21.55-7.97-14.49.43-26.7,22.71-31.88,39.83-9.5,31.37,6.26,40,0,66.38-8.3,34.96-44.56,55.88-67.37,69.03-32.9,18.98-43.35,12.9-61.07,26.55-27.73,21.37-32.59,59.72-33.83,90.74,2.53-.6,5.09-1.09,7.72-1.35,26.05-2.61,57.36,11.98,60.18,27.44,1.85,10.15-8.8,19.52-3.54,29.21,4.4,8.1,14.33,6.11,19.47,15.05,4.48,7.79,1.52,17.26,0,22.13-7.27,23.26-25.86,22.47-31.86,38.94-9.13,25.03,25.8,48.83,15.05,67.26-6.54,11.21-24.78,11.5-25.74,11.51-24,.09-31.99-25.98-52.14-23.9-12.19,1.26-20.37,11.94-24.78,17.7-10.37,13.54-7.69,23.2-13.28,49.56-8.32,39.28-19.46,42.3-16.82,64.61,2.32,19.61,11.09,18.58,12.39,37.17,2.11,30.05-19.75,47.63-11.5,58.41,2.76,3.61,5.93,2.57,25.66,5.31,27.99,3.89,42.09,6,47.79,14.16,6.73,9.65,1.08,20.97,8.85,25.67,4.56,2.76,9.52.66,14.16,0,5.44-.78,11.4.32,17.23,2.57-4.43-13.6-13.8-19.14-11.36-26.58,2.77-8.45,16.07-4.94,22.13-15.05,7.48-12.47-6.39-28.46,0-34.52,4.89-4.63,13.87,3.9,32.75,3.54,5.85-.11,13.05-2.19,27.44-6.34,25.96-7.49,32.23-11.8,42.48-8.71.37.11.91.29,1.51.5,0,0,0,0,0,0,0,0,0,0,0,0,.07.02.13.05.2.07,1.01.36,2.24.87,3.61,1.58.02.01.04.02.06.03,1.38.71,2.84,1.63,4.3,2.8,0,0,0,0,0,0,13.38,2.22,25.07,9.26,29.81,3.1,6.71-8.71-13.98-26.27-7.61-48.68,4.2-14.76,15.72-16.09,15.58-27.44-.19-15.02-20.44-18.02-25.67-34.52-5.91-18.67,11.22-42.59,26.11-55.31,35.01-29.93,67.2-6.15,97.35-32.75,27.6-24.34,12.54-54.78,37.17-69.03,30.49-17.64,59.8,25.36,99.56,10.18,37.34-14.26,55.98-69.17,78.32-62.84,4.63,1.31,8.8,5.08,15.05,3.54,9.18-2.26,16.89-14.51,14.16-22.13-2.29-6.4-10.46-5.37-14.16-12.83-3.52-7.1.15-15.56.88-17.26,9.18-21.15,44.75-7.18,73.9-31.48,16.75-13.97,16.32-28.01,34.96-34.45,14.56-5.03,17.99,2.46,28.32-2.21,11.06-5,15.2-17.26,23.9-41.7-14.15-11.89-29.55-27.66-43.01-52.12Z" fill="#1466b1" stroke="#231815" stroke-miterlimit="10" stroke-width=".75"/>
  <path id="hamgyeong_north" d="M1809.81,350.88s-13.22.32-20.07-2.22c-21.73-8.03-35.82-34.55-29.87-43.81,4.54-7.07,18.33-.29,46.46-9.29,9.74-3.12,14.62-4.68,17.92-8.63,11.97-14.31-3.3-37.9,6.64-45.8,7.07-5.63,17.41,4.28,29.21-3.32,7.23-4.66,9.72-12.49,9.96-13.27,1.68-5.56-2.18-9.17,0-13.94,1.91-4.19,6.18-5.62,7.97-6.64,9.54-5.43,3.25-30.15,1.12-49.64-1.45-.11-2.95-.26-4.66-.58-20.34-3.78-33.14-18.87-36.29-22.57-15.03-17.7-17-38.36-17.7-46.91-2.13-25.98,7.84-37.39,0-45.58-8.58-8.96-23.72,1.38-35.84-9.29-9.55-8.41-5.3-19.35-13.72-23.45-9.33-4.55-16.98,7.73-33.63,7.52-18.3-.22-22.98-15.22-32.75-12.83-14.34,3.51-10.44,37.37-26.11,92.48-11.21,39.42-17.27,36.42-18.59,57.97-2.31,37.91,15.26,66.86,2.66,76.55-4.88,3.75-12.59,3.31-16.37,3.1-14.72-.84-20.55-10.86-26.55-8.37-8.39,3.48-1.25,24.82-9.29,30.05-11.99,7.8-37.42-33.36-60.18-28.76-24.1,4.87-16.84,55.32-53.99,111.51-5.42,8.2-17.72,26.34-37.39,43.29,0,0,0,0,0,0,.02,9.41-1.94,17.94-7.08,24.19-5.03,6.13-13.49,10.65-34.52,31.86-11.41,11.51-15.55,16.86-14.6,22.57,1.59,9.64,15.72,8.27,25.22,18.59,19.54,21.21-11.78,57.8,6.64,87.62,11.8,19.11,32.54,16.82,34.3,31.86,1.87,15.97-21.18,21.37-26.34,45.14-2.89,13.34,3.05,17.73,13.27,50.45,10.99,35.16,17.66,56.49,10.62,75.67-2.59,7.05-6.74,12.75-11.36,17.52-.06-.17-.08-.32-.14-.49,12.58,35.2-16.41,58.16-11.95,104.87,2.15,22.56,11.08,38.15,20.05,54.43,13.46,24.45,28.86,40.22,43.01,52.12,0,0,12.11-32.18,16.37-42.82,2.35-5.87,7.26-17,14.16-17.26,6.39-.24,7.64,9.14,14.16,11.51,17.68,6.41,37.23-52.07,81.86-62.84,25.07-6.05,37.85,7.84,48.23-2.21,11.94-11.56-2.12-32.68-6.19-86.29-2.1-27.65-3.46-45.53,1.77-68.59,8.68-38.2,27.32-54.8,18.58-69.03-7.72-12.58-24.6-3.4-38.5-17.26-20.4-20.34-16.48-72.44,5.31-90.71,5.05-4.24,13.88-9.01,17.7-19.91,3.06-8.73.39-14.18,4.87-19.03,5.98-6.47,15.18.7,22.12-4.87,18.21-14.6,4.53-54.82,18.14-60.62,5.73-2.44,8.62,4.48,15.93,3.1,17.87-3.37,10.72-46.68,39.83-74.78,11.28-10.89,14.89-6.46,26.99-19.47.66-.71,2.6-2.87,2.6-2.87Z" fill="#d94893" stroke="#231815" stroke-miterlimit="10" stroke-width=".75"/>
  <path id="nason" d="M1835.98,310.83c5.32,1.59,2.55,21.11,7.08,22.13,8.38,1.88,21.43-66.42,44.25-65.49,15.13.61,21.7,30.12,44.25,29.21,2.79-.11,20.66-1.17,26.99-12.83,9.99-18.41-17.67-51.35-24.34-59.3-6.8-8.1-6.58-5.95-10.62-11.51-18.76-25.76-7.89-50.4-21.68-58.85-6.8-4.17-10.61,1.09-22.78.14,2.13,19.49,8.42,44.21-1.12,49.64-1.79,1.02-6.05,2.45-7.97,6.64-2.18,4.77,1.68,8.38,0,13.94-.24.79-2.72,8.61-9.96,13.27-11.8,7.6-22.13-2.31-29.21,3.32-9.93,7.9,5.33,31.49-6.64,45.8-3.3,3.95-8.18,5.51-17.92,8.63-28.13,9-41.92,2.23-46.46,9.29-5.95,9.25,8.14,35.77,29.87,43.81,6.86,2.53,13.68,2.91,20.07,2.22,17.16-19.57,21.29-41.5,26.17-40.05Z" fill="#be1e5b" stroke="#231815" stroke-miterlimit="10" stroke-width=".75"/>
</svg>